# xmcd
#
# Track frame offsets:
#	150
#	16460
#	30342
#	45907
#	58535
#	73702
#	90864
#	103420
#	119574
#	131228
#	142604
#
# Disc length: 2104 seconds
# Revision: 1
# Processed by: cddbd v1.5.2PL0 Copyright (c) Steve Scherf et al.
# Submitted via: dBpowerAMP V12.0
#
DISCID=8c08360b
DTITLE=Stephanie Davis - Western Bliss
DYEAR=2009
DGENRE=Country
TTITLE0=Montana Cowgirl
TTITLE1=Hittin' The Trail Tonight
TTITLE2=Santa Fe, New Mexico
TTITLE3=Bronco Buster's Ball
TTITLE4=Leanin' On The Old Top Rail
TTITLE5=Navajo Trail
TTITLE6=Texas Blues
TTITLE7=Ol' Faithful
TTITLE8=Trail's End Theme Song
TTITLE9=Idaho
TTITLE10=There's A Gold Mine Tn The Sky
EXTD=
EXTT0=
EXTT1=
EXTT2=
EXTT3=
EXTT4=
EXTT5=
EXTT6=
EXTT7=
EXTT8=
EXTT9=
EXTT10=
PLAYORDER=
